<svg xmlns="http://www.w3.org/2000/svg" xml:space="preserve" width="11.8056in" height="11.8056in" version="1.1" style="shape-rendering:geometricPrecision; text-rendering:geometricPrecision; image-rendering:optimizeQuality; fill-rule:evenodd; clip-rule:evenodd" viewBox="0 0 11806 11806" xmlns:xlink="http://www.w3.org/1999/xlink">
 <defs>
  <style type="text/css">
   
    .fil0 {fill:#663399}
    .fil1 {fill:white}
   
  </style>
 </defs>
 <g id="Layer_x0020_1">
  <metadata id="CorelCorpID_0Corel-Layer"></metadata>
  <circle class="fil0" cx="5903" cy="5903" r="5903" id="id_104" style="fill: rgb(255, 255, 255);"></circle>
  <path class="fil1" d="M8868 8562l-5537 0c-324,0 -590,-267 -590,-591l0 -2100 6717 0 0 2100c0,324 -266,591 -590,591zm-6127 -2899l0 -880 6717 0 0 880 -6717 0zm0 -1088l0 -64c0,-330 266,-596 590,-596l5537 0c324,0 590,266 590,590l0 70 -6717 0zm3529 1904l-3032 0c-58,0 -104,-47 -104,-105 0,-57 46,-104 104,-104l3038 0c58,0 104,47 104,104 0,58 -52,105 -110,105zm-1099 700l-1933 0c-58,0 -104,-47 -104,-105 0,-57 46,-104 104,-104l1933 0c58,0 104,47 104,104 0,58 -52,105 -104,105zm-1371 977l-487 0c-57,0 -104,-46 -104,-104l0 -486c0,-58 47,-104 104,-104l487 0c57,0 104,46 104,104l0 486c0,58 -47,104 -104,104zm-382 -202l283 0 0 -284 -283 0 0 284zm1319 202l-480 0c-58,0 -105,-46 -105,-104l0 -486c0,-58 47,-104 105,-104l486 0c58,0 104,46 104,104l0 486c-6,58 -52,104 -110,104zm-382 -202l284 0 0 -284 -284 0 0 284zm1319 202l-486 0c-58,0 -104,-46 -104,-104l0 -486c0,-58 46,-104 104,-104l486 0c58,0 104,46 104,104l0 486c0,58 -46,104 -104,104zm-382 -202l284 0 0 -284 -284 0 0 284zm1320 202l-486 0c-58,0 -105,-46 -105,-104l0 -486c0,-58 47,-104 105,-104l486 0c57,0 104,46 104,104l0 486c-6,58 -52,104 -104,104zm-382 -202l283 0 0 -284 -283 0 0 284z" id="id_105" style="fill: rgb(51, 51, 51);"></path>
  <path class="fil1" d="M2554 7748c-127,-110 -207,-272 -207,-448l0 -3466c0,-324 266,-590 590,-590l5538 0c283,0 532,203 584,486 2,8 2,16 2,23 -62,-16 -126,-24 -193,-24l-5537 0c-431,0 -777,353 -777,782l0 251 0 2986z" id="id_106" style="fill: rgb(51, 51, 51);"></path>
 </g>
</svg>