<svg xmlns="http://www.w3.org/2000/svg" xml:space="preserve" width="11.1111in" height="11.1111in" version="1.1" style="shape-rendering:geometricPrecision; text-rendering:geometricPrecision; image-rendering:optimizeQuality; fill-rule:evenodd; clip-rule:evenodd" viewBox="0 0 11111 11111" xmlns:xlink="http://www.w3.org/1999/xlink">
 <defs>
  <style type="text/css">
   
    .fil0 {fill:#1D81CE}
    .fil1 {fill:white}
   
  </style>
 </defs>
 <g id="Layer_x0020_1">
  <metadata id="CorelCorpID_0Corel-Layer"></metadata>
  <circle class="fil0" cx="5556" cy="5556" r="5556" id="id_103" style="fill: rgb(255, 255, 255);"></circle>
  <path class="fil1" d="M8972 9109l-721 0 0 -836c0,-36 -29,-65 -64,-65 -36,0 -65,29 -65,65l0 836 -2337 0 0 -836c0,-36 -29,-65 -65,-65 -36,0 -65,29 -65,65l0 836 -720 0c-69,0 -125,-56 -125,-125l0 -765c0,-698 567,-1265 1264,-1265l234 0c29,0 57,10 79,29l566 466 566 -466c23,-19 51,-29 80,-29l233 0c697,0 1265,567 1265,1265l0 765c0,69 -56,125 -125,125zm-3579 -2261l-3254 0c-69,0 -125,-56 -125,-125 0,-69 56,-125 125,-125l3254 0c69,0 125,56 125,125 0,69 -56,125 -125,125zm-3138 -370l0 -589c0,-69 56,-125 125,-125l556 0c69,0 125,56 125,125l0 589 -806 0zm1084 0l0 -998c0,-69 56,-125 125,-125l556 0c69,0 125,56 125,125l0 998 -806 0zm1085 0l0 -1229c0,-69 56,-125 125,-125l556 0c69,0 125,56 125,125l0 1229 -806 0zm-658 -2247c-69,0 -125,-56 -125,-125l0 -222c0,-69 56,-124 125,-124 69,0 125,55 125,124l0 222c0,69 -56,125 -125,125zm1617 -296l-1372 0 0 -51c0,-135 -110,-244 -245,-244 -135,0 -245,109 -245,244l0 51 -1372 0c-69,0 -125,-56 -125,-125l0 -925c0,-69 56,-125 125,-125l943 0 0 -633c0,-69 56,-125 125,-125l1098 0c69,0 125,56 125,125l0 633 943 0c69,0 125,56 125,125l0 925c0,69 -56,125 -125,125zm-2041 -1175l848 0 0 -508 -848 0 0 508zm1904 1983l-2960 0c-69,0 -125,-56 -125,-125l0 -563 1360 0 0 51c0,135 110,245 245,245 135,0 245,-110 245,-245l0 -51 1360 0 0 563c0,69 -56,125 -125,125zm1939 2091l-463 0c-59,0 -110,-41 -122,-98l-70 -312c-119,-46 -232,-111 -331,-192l-305 96c-56,18 -116,-6 -146,-56l-231 -402c-30,-50 -20,-115 23,-154l236 -216c-10,-63 -15,-127 -15,-191 0,-65 5,-129 15,-192l-236 -216c-43,-39 -53,-104 -23,-154l231 -402c30,-50 90,-74 146,-56l305 96c99,-81 212,-146 331,-192l70 -312c12,-57 63,-97 122,-97l463 0c58,0 109,40 122,97l69 312c120,46 232,111 331,192l305 -96c56,-18 117,6 146,56l232 402c29,50 19,115 -24,154l-235 216c10,63 15,127 15,192 0,64 -5,128 -15,191l235 216c43,39 53,104 24,154l-232 402c-29,50 -90,74 -146,56l-305 -96c-99,81 -212,146 -331,192l-69 312c-13,57 -64,98 -122,98zm-232 -863c366,0 663,-297 663,-662 0,-366 -297,-663 -663,-663 -365,0 -662,297 -662,663 0,365 297,662 662,662zm0 -1195c294,0 533,239 533,533 0,293 -239,532 -533,532 -294,0 -532,-239 -532,-532 0,-294 238,-533 532,-533z" id="id_104" style="fill: rgb(51, 51, 51);"></path>
 </g>
</svg>