<svg xmlns="http://www.w3.org/2000/svg" xml:space="preserve" width="850px" height="850px" version="1.1" style="shape-rendering:geometricPrecision; text-rendering:geometricPrecision; image-rendering:optimizeQuality; fill-rule:evenodd; clip-rule:evenodd" viewBox="0 0 850 850" xmlns:xlink="http://www.w3.org/1999/xlink">
 <defs>
  <style type="text/css">
   
    .fil0 {fill:#05B443}
    .fil1 {fill:white}
   
  </style>
 </defs>
 <g id="Layer_x0020_1">
  <metadata id="CorelCorpID_0Corel-Layer"></metadata>
  <circle class="fil0" cx="425" cy="425" r="425" id="id_111" style="fill: rgb(255, 255, 255);"></circle>
  <path class="fil1" d="M606 681l-40 0 0 -76c0,-4 -3,-8 -7,-8 -5,0 -8,4 -8,8l0 76 -120 0 0 -70c0,-4 -4,-7 -8,-7 -4,0 -7,3 -7,7l0 70 -117 0 0 -76c0,-4 -3,-8 -8,-8 -4,0 -7,4 -7,8l0 76 -40 0c-5,0 -8,-4 -8,-8 0,-106 8,-145 97,-152 -1,2 -1,4 -1,6 0,5 2,11 6,15l47 47c10,9 26,8 33,-4l7 -12 6 11c4,5 9,9 15,10l2 1 1 0c0,0 0,0 1,0 5,0 11,-3 15,-7l46 -47c4,-4 6,-9 6,-15 0,-2 0,-3 0,-5 86,6 96,40 97,152 0,2 -1,4 -2,5 -2,2 -4,3 -6,3z" id="id_112" style="fill: rgb(51, 51, 51);"></path>
  <path class="fil1" d="M395 579l-47 -47c-1,-1 -2,-3 -2,-5 0,-2 1,-4 2,-5l27 -27 1 -33c0,-4 3,-7 7,-7 4,0 7,3 7,8l0 1 19 12 32 -1 11 -6 8 -6 0 -1c0,-4 3,-7 7,-7 4,0 8,3 8,7l0 33 26 26c2,1 2,4 2,5 0,2 0,4 -2,5l-46 48c-2,1 -3,2 -5,2 -1,0 -1,0 -1,0 -2,-1 -4,-2 -6,-4l-18 -31 -19 32c-2,4 -8,4 -11,1z" id="id_113" style="fill: rgb(51, 51, 51);"></path>
  <path class="fil1" d="M335 286c-5,44 -2,77 6,89 2,-26 10,-45 24,-58 24,-21 64,-20 103,-15 32,5 39,27 41,73 11,-15 10,-57 6,-92 -5,-41 -53,-46 -74,-46 0,0 -1,0 -1,0 -50,1 -102,24 -105,49z" id="id_114" style="fill: rgb(51, 51, 51);"></path>
  <path class="fil1" d="M347 394c0,0 0,0 0,0 -6,0 -12,-3 -17,-8 -12,-15 -15,-49 -10,-102 0,0 0,0 0,0 4,-35 67,-60 120,-61 0,0 1,0 1,0 50,0 83,22 88,58 3,31 7,84 -10,105 -4,5 -10,8 -16,8 -3,0 -5,0 -6,-2 -1,-1 -2,-3 -2,-5 0,-62 -11,-68 -29,-70 -35,-5 -71,-6 -91,11 -13,11 -20,31 -20,59 0,2 -1,4 -3,5 -1,2 -2,2 -5,2z" id="id_115" style="fill: rgb(51, 51, 51);"></path>
  <path class="fil1" d="M425 486c0,0 0,0 0,0 -36,0 -76,-30 -85,-98 0,-4 3,-7 7,-8 4,-1 7,2 8,6 7,59 40,85 70,85 29,0 63,-26 70,-85 0,-4 4,-7 8,-6 4,0 7,4 6,8 -8,68 -48,98 -84,98z" id="id_116" style="fill: rgb(51, 51, 51);"></path>
  <path class="fil1" d="M562 326c-4,0 -7,-3 -7,-8l0 -4c0,-72 -59,-130 -131,-130 -72,0 -130,58 -130,130l0 4c0,5 -3,8 -7,8 -4,0 -8,-3 -8,-8l0 -4c0,-80 65,-145 145,-145 80,0 145,65 145,145l0 4c1,5 -2,8 -7,8z" id="id_117" style="fill: rgb(51, 51, 51);"></path>
  <path class="fil1" d="M288 411l-48 0c-4,0 -7,-4 -7,-8l0 -85c0,-4 3,-7 7,-7l48 0c4,0 7,3 7,7l0 85c0,5 -4,8 -7,8z" id="id_118" style="fill: rgb(51, 51, 51);"></path>
  <path class="fil1" d="M610 411l-48 0c-4,0 -7,-4 -7,-8l0 -85c0,-4 3,-7 7,-7l48 0c4,0 7,3 7,7l0 85c0,5 -3,8 -7,8z" id="id_119" style="fill: rgb(51, 51, 51);"></path>
  <path class="fil1" d="M586 443l-74 0c-4,0 -7,-4 -7,-8 0,-4 3,-7 7,-7l67 0 0 -25c0,-4 3,-7 7,-7 5,0 8,3 8,7l0 32c0,4 -4,8 -8,8z" id="id_120" style="fill: rgb(51, 51, 51);"></path>
 </g>
</svg>