<svg xmlns="http://www.w3.org/2000/svg" xml:space="preserve" width="850px" height="850px" version="1.1" style="shape-rendering:geometricPrecision; text-rendering:geometricPrecision; image-rendering:optimizeQuality; fill-rule:evenodd; clip-rule:evenodd" viewBox="0 0 850 850" xmlns:xlink="http://www.w3.org/1999/xlink">
 <defs>
  <style type="text/css">
   
    .fil0 {fill:#663399}
    .fil1 {fill:white}
   
  </style>
 </defs>
 <g id="Layer_x0020_1">
  <metadata id="CorelCorpID_0Corel-Layer"></metadata>
  <circle class="fil0" cx="425" cy="425" r="425" id="id_118" style="fill: rgb(255, 255, 255);"></circle>
  <g id="_384104008">
   <g>
    <path class="fil1" d="M658 636l-466 0c-12,0 -23,-10 -23,-23l0 -376c0,-13 11,-23 23,-23l466 0c12,0 22,10 22,23l0 376c0,13 -10,23 -22,23zm-466 -408c-5,0 -8,4 -8,9l0 376c0,5 3,9 8,9l466 0c5,0 8,-4 8,-9l0 -376c0,-5 -4,-9 -8,-9l-466 0z" id="id_119" style="fill: rgb(51, 51, 51);"></path>
   </g>
   <g>
    <path class="fil1" d="M673 322l-496 0c-4,0 -8,-3 -8,-7 0,-4 4,-8 8,-8l496 0c4,0 8,4 8,8 0,4 -4,7 -8,7z" id="id_120" style="fill: rgb(51, 51, 51);"></path>
   </g>
   <g>
    <g>
     <path class="fil1" d="M227 292c-13,0 -24,-11 -24,-24 0,-13 11,-24 24,-24 13,0 24,11 24,24 0,13 -11,24 -24,24zm0 -33c-5,0 -9,4 -9,9 0,5 4,9 9,9 5,0 9,-4 9,-9 0,-5 -4,-9 -9,-9z" id="id_121" style="fill: rgb(51, 51, 51);"></path>
    </g>
    <g>
     <path class="fil1" d="M303 292c-13,0 -24,-11 -24,-24 0,-13 11,-24 24,-24 13,0 24,11 24,24 0,13 -11,24 -24,24zm0 -33c-5,0 -9,4 -9,9 0,5 4,9 9,9 5,0 9,-4 9,-9 0,-5 -4,-9 -9,-9z" id="id_122" style="fill: rgb(51, 51, 51);"></path>
    </g>
    <g>
     <path class="fil1" d="M379 292c-13,0 -24,-11 -24,-24 0,-13 11,-24 24,-24 13,0 23,11 23,24 0,13 -10,24 -23,24zm0 -33c-5,0 -9,4 -9,9 0,5 4,9 9,9 5,0 9,-4 9,-9 0,-5 -4,-9 -9,-9z" id="id_123" style="fill: rgb(51, 51, 51);"></path>
    </g>
   </g>
   <g>
    <g>
     <path class="fil1" d="M645 294c-4,0 -7,-3 -7,-7l0 -21c0,-5 -4,-10 -10,-10l-59 0c-5,0 -8,-3 -8,-7 0,-4 3,-7 8,-7l60 0c13,0 24,10 24,24l0 21c0,4 -4,7 -8,7z" id="id_124" style="fill: rgb(51, 51, 51);"></path>
    </g>
    <g>
     <path class="fil1" d="M518 258l-28 0c-4,0 -7,-3 -7,-7 0,-4 3,-7 7,-7l28 0c4,0 8,3 8,7 0,3 -4,7 -8,7z" id="id_125" style="fill: rgb(51, 51, 51);"></path>
    </g>
   </g>
   <g>
    <g>
     <path class="fil1" d="M516 598c-69,0 -126,-56 -126,-126 0,-70 57,-126 126,-126 70,0 127,56 127,126 0,70 -57,126 -127,126zm0 -238c-61,0 -111,50 -111,112 0,61 50,111 111,111 62,0 112,-50 112,-111 0,-62 -50,-112 -112,-112z" id="id_126" style="fill: rgb(51, 51, 51);"></path>
    </g>
    <g>
     <path class="fil1" d="M516 598c-31,0 -48,-65 -48,-126 0,-61 17,-126 48,-126 31,0 48,65 48,126 0,61 -17,126 -48,126zm0 -238c-14,0 -33,43 -33,112 0,69 20,111 33,111 14,0 33,-42 33,-111 1,-69 -19,-112 -33,-112z" id="id_127" style="fill: rgb(51, 51, 51);"></path>
    </g>
    <g>
     <path class="fil1" d="M516 520c-61,0 -126,-17 -126,-48 0,-31 65,-48 126,-48 61,0 127,17 127,48 0,31 -65,48 -127,48zm0 -81c-69,0 -111,19 -111,33 0,13 42,33 111,33 70,0 112,-20 112,-33 0,-14 -42,-33 -112,-33z" id="id_128" style="fill: rgb(51, 51, 51);"></path>
    </g>
   </g>
   <g>
    <path class="fil1" d="M382 411l-170 0c-4,0 -7,-4 -7,-8 0,-4 3,-7 7,-7l170 0c5,0 8,3 8,7 0,4 -3,8 -8,8z" id="id_129" style="fill: rgb(51, 51, 51);"></path>
   </g>
   <g>
    <path class="fil1" d="M347 456l-135 0c-4,0 -7,-3 -7,-7 0,-4 3,-8 7,-8l135 0c5,0 8,4 8,8 0,4 -3,7 -8,7z" id="id_130" style="fill: rgb(51, 51, 51);"></path>
   </g>
   <g>
    <path class="fil1" d="M347 503l-135 0c-4,0 -7,-4 -7,-8 0,-4 3,-7 7,-7l135 0c5,0 8,3 8,7 0,4 -3,8 -8,8z" id="id_131" style="fill: rgb(51, 51, 51);"></path>
   </g>
   <g>
    <path class="fil1" d="M382 548l-170 0c-4,0 -7,-3 -7,-7 0,-4 3,-8 7,-8l170 0c5,0 8,4 8,8 0,4 -3,7 -8,7z" id="id_132" style="fill: rgb(51, 51, 51);"></path>
   </g>
   <g>
    <path class="fil1" d="M420 594l-208 0c-4,0 -7,-3 -7,-8 0,-4 3,-7 7,-7l208 0c4,0 7,3 7,7 0,5 -3,8 -7,8z" id="id_133" style="fill: rgb(51, 51, 51);"></path>
   </g>
   <g>
    <path class="fil1" d="M420 365l-208 0c-4,0 -7,-3 -7,-8 0,-4 3,-7 7,-7l208 0c4,0 7,3 7,7 0,5 -3,8 -7,8z" id="id_134" style="fill: rgb(51, 51, 51);"></path>
   </g>
  </g>
 </g>
</svg>