<svg xmlns="http://www.w3.org/2000/svg" xml:space="preserve" width="850px" height="850px" version="1.1" style="shape-rendering:geometricPrecision; text-rendering:geometricPrecision; image-rendering:optimizeQuality; fill-rule:evenodd; clip-rule:evenodd" viewBox="0 0 850 850" xmlns:xlink="http://www.w3.org/1999/xlink" xmlns:xodm="http://www.corel.com/coreldraw/odm/2003">
 <defs>
  <style type="text/css">
   
    .fil0 {fill:#05B443}
    .fil1 {fill:#FDFDFD}
   
  </style>
 </defs>
 <g id="Layer_x0020_1">
  <metadata id="CorelCorpID_0Corel-Layer"></metadata>
  <circle class="fil0" cx="425" cy="425" r="425" id="id_114" style="fill: rgb(255, 255, 255);"></circle>
  <path class="fil1" d="M275 183c-5.1,0 -10,4.9 -10,10l0 168c0,6.3 5.1,10 10,10l300 0c4.9,0 10,-3.7 10,-10l0 -168c0,-5.1 -4.9,-10 -10,-10l-300 0zm211 55l-175 0c-3.9,0 -7,-3.1 -7,-7 0,-3.9 3.1,-7 7,-7l175 0c3.9,0 7,3.1 7,7 0,3.9 -3.1,7 -7,7zm0 46l-175 0c-3.9,0 -7,-3.1 -7,-7 0,-3.9 3.1,-7 7,-7l175 0c3.9,0 7,3.1 7,7 0,3.9 -3.1,7 -7,7zm-69 47l-106 0c-3.9,0 -7,-3.1 -7,-7 0,-3.9 3.1,-7 7,-7l106 0c3.9,0 7,3.1 7,7 0,3.9 -3.1,7 -7,7z" id="id_115" style="fill: rgb(51, 51, 51);"></path>
  <path class="fil1" d="M425 533c-1.8,0 -3.6,-0.7 -4.9,-2.1l-42 -42c-2.7,-2.7 -2.7,-7.2 0,-9.9l42 -42c1.3,-1.3 3.1,-2.1 4.9,-2.1 1.8,0 3.6,0.7 4.9,2.1l42 42c2.7,2.7 2.7,7.2 0,9.9l-42 42c-1.3,1.4 -3.1,2.1 -4.9,2.1z" id="id_116" style="fill: rgb(51, 51, 51);"></path>
  <path class="fil1" d="M425 449c-3.9,0 -7,-3.1 -7,-7l0 -64c0,-3.9 3.1,-7 7,-7 3.9,0 7,3.1 7,7l0 64c0,3.9 -3.1,7 -7,7z" id="id_117" style="fill: rgb(51, 51, 51);"></path>
  <path class="fil1" d="M383 491l-118 0c-3.9,0 -7,-3.1 -7,-7 0,-3.9 3.1,-7 7,-7l118 0c3.9,0 7,3.1 7,7 0,3.9 -3.1,7 -7,7z" id="id_118" style="fill: rgb(51, 51, 51);"></path>
  <path class="fil1" d="M223 533c-27,0 -49,-22 -49,-49 0,-27 22,-49 49,-49 27,0 49,22 49,49 0,27 -22,49 -49,49z" id="id_119" style="fill: rgb(51, 51, 51);"></path>
  <path class="fil1" d="M585 491l-118 0c-3.9,0 -7,-3.1 -7,-7 0,-3.9 3.1,-7 7,-7l118 0c3.9,0 7,3.1 7,7 0,3.9 -3.1,7 -7,7z" id="id_120" style="fill: rgb(51, 51, 51);"></path>
  <path class="fil1" d="M627 533c-27,0 -49,-22 -49,-49 0,-27 22,-49 49,-49 27,0 49,22 49,49 0,27 -22,49 -49,49z" id="id_121" style="fill: rgb(51, 51, 51);"></path>
  <path class="fil1" d="M425 449c-3.9,0 -7,-3.1 -7,-7l0 -64c0,-3.9 3.1,-7 7,-7 3.9,0 7,3.1 7,7l0 64c0,3.9 -3.1,7 -7,7z" id="id_122" style="fill: rgb(51, 51, 51);"></path>
  <path class="fil1" d="M425 597c-3.9,0 -7,-3.1 -7,-7l0 -64c0,-3.9 3.1,-7 7,-7 3.9,0 7,3.1 7,7l0 64c0,3.9 -3.1,7 -7,7z" id="id_123" style="fill: rgb(51, 51, 51);"></path>
  <path class="fil1" d="M425 681c-27,0 -49,-22 -49,-49 0,-27.5 21.5,-49 49,-49 27.5,0 49,21.5 49,49 0,27 -22,49 -49,49z" id="id_124" style="fill: rgb(51, 51, 51);"></path>
  <path class="fil1" d="M383 639l-118 0c-3.9,0 -7,-3.1 -7,-7 0,-3.9 3.1,-7 7,-7l118 0c3.9,0 7,3.1 7,7 0,3.9 -3.1,7 -7,7z" id="id_125" style="fill: rgb(51, 51, 51);"></path>
  <path class="fil1" d="M260 671l-73 0c-7.2,0 -13,-5.4 -13,-12l0 -54c0,-6.9 6.1,-13 13,-13l73 0c6.6,0 12,5.8 12,13l0 54c0,6.8 -5.2,12 -12,12z" id="id_126" style="fill: rgb(51, 51, 51);"></path>
 </g>
</svg>