<svg xmlns="http://www.w3.org/2000/svg" xml:space="preserve" width="850px" height="850px" version="1.1" style="shape-rendering:geometricPrecision; text-rendering:geometricPrecision; image-rendering:optimizeQuality; fill-rule:evenodd; clip-rule:evenodd" viewBox="0 0 850 850" xmlns:xlink="http://www.w3.org/1999/xlink" xmlns:xodm="http://www.corel.com/coreldraw/odm/2003">
 <defs>
  <style type="text/css">
   
    .fil0 {fill:#3A5A99}
    .fil1 {fill:#FDFDFD}
   
  </style>
 </defs>
 <g id="Layer_x0020_1">
  <metadata id="CorelCorpID_0Corel-Layer"></metadata>
  <circle class="fil0" cx="425" cy="425" r="425" id="id_107" style="fill: rgb(255, 255, 255);"></circle>
  <path class="fil1" d="M207 578.64l0 -344c0,-7.9 7.1,-15 15,-15l0.1 0 76.9 0c8.4,0 15,6.6 15,15l0 344 -91.9 0 -15.1 0zm14 -357.9l0 0 0 0zm0 356.8l0 0zm60 -321.9l-40 0c-3.9,0 -7,-3.1 -7,-7 0,-3.9 3.1,-7 7,-7l40 0c3.9,0 7,3.1 7,7 0,3.9 -3.1,7 -7,7zm0 28l-40 0c-3.9,0 -7,-3.1 -7,-7 0,-3.9 3.1,-7 7,-7l40 0c3.9,0 7,3.1 7,7 0,3.9 -3.1,7 -7,7zm0 29l-40 0c-3.9,0 -7,-3.1 -7,-7 0,-3.9 3.1,-7 7,-7l40 0c3.9,0 7,3.1 7,7 0,3.9 -3.1,7 -7,7zm0 28l-40 0c-3.9,0 -7,-3.1 -7,-7 0,-3.9 3.1,-7 7,-7l40 0c3.9,0 7,3.1 7,7 0,3.9 -3.1,7 -7,7zm0.6 215.9l-41.6 0c-3.9,0 -7,-3.1 -7,-7l0 -45.9c0,-3.9 3.1,-7 7,-7l41.6 0c3.9,0 7,3.1 7,7l0 45.9c0,3.9 -3.1,7 -7,7zm-34.6 -14l27.6 0 0 -31.9 -27.6 0 0 31.9z" id="id_108" style="fill: rgb(51, 51, 51);"></path>
  <path class="fil1" d="M342 578.64l0 -344c0,-8.1 6.4,-15 14,-15l78 0c3.1,0 6,1.15 8.35,3.06l-2.45 0.75c-14.13,4.33 -22.6,18.42 -19.7,32.79l0 0.53 27.8 89.37 0 232.5 -106 0zm63 -322.95l-40 0c-3.9,0 -7,-3.1 -7,-7 0,-3.9 3.1,-7 7,-7l40 0c3.9,0 7,3.1 7,7 0,3.9 -3.1,7 -7,7zm0 28l-40 0c-3.9,0 -7,-3.1 -7,-7 0,-3.9 3.1,-7 7,-7l40 0c3.9,0 7,3.1 7,7 0,3.9 -3.1,7 -7,7zm0 29l-40 0c-3.9,0 -7,-3.1 -7,-7 0,-3.9 3.1,-7 7,-7l40 0c3.9,0 7,3.1 7,7 0,3.9 -3.1,7 -7,7zm0 28l-40 0c-3.9,0 -7,-3.1 -7,-7 0,-3.9 3.1,-7 7,-7l40 0c3.9,0 7,3.1 7,7 0,3.9 -3.1,7 -7,7zm10.6 215.9l-41.6 0c-3.9,0 -7,-3.1 -7,-7l0 -45.9c0,-3.9 3.1,-7 7,-7l41.6 0c3.9,0 7,3.1 7,7l0 45.9c0,3.9 -3.1,7 -7,7zm-34.6 -14l27.6 0 0 -31.9 -27.6 0 0 31.9z" id="id_109" style="fill: rgb(51, 51, 51);"></path>
  <path class="fil1" d="M534.97 578.64l-100.77 -324c0,-0.1 -0.1,-0.3 -0.1,-0.4 -2,-7.8 2.4,-15.4 9.9,-17.4l74.8 -22.9c3.4,-1.1 7.5,-0.6 11,1.3 3.5,1.9 5.9,4.9 6.8,8.4l105 340.9c0,0.1 0.1,0.2 0.1,0.4 0.9,3.7 0.5,7.4 -1.3,10.6 -0.61,1.15 -1.37,2.19 -2.26,3.1l-103.17 0zm28.03 -12c-3,0 -5.7,-1.9 -6.7,-4.9l-14 -44c-0.6,-1.8 -0.4,-3.7 0.5,-5.4 0.9,-1.7 2.4,-2.9 4.2,-3.4l40 -12c3.7,-1.1 7.5,0.9 8.7,4.6l14 44c0.6,1.8 0.4,3.7 -0.5,5.4 -0.9,1.7 -2.4,2.9 -4.2,3.4l-40 12c-0.7,0.2 -1.3,0.3 -2,0.3zm-5.2 -46.3l9.8 30.7 26.6 -8 -9.8 -30.7 -26.6 8zm-57.8 -159.7c-3,0 -5.7,-1.9 -6.7,-4.9 -1.2,-3.7 0.9,-7.6 4.6,-8.8l38 -12c3.7,-1.2 7.6,0.9 8.8,4.6 1.2,3.7 -0.9,7.6 -4.6,8.8l-38 12c-0.7,0.2 -1.4,0.3 -2.1,0.3zm-8 -27c-3,0 -5.7,-1.9 -6.7,-4.9 -1.2,-3.7 0.9,-7.6 4.6,-8.8l38 -12c3.7,-1.2 7.6,0.9 8.8,4.6 1.2,3.7 -0.9,7.6 -4.6,8.8l-38 12c-0.7,0.2 -1.4,0.3 -2.1,0.3zm-9 -28c-3,0 -5.8,-2 -6.7,-5.1 -1.1,-3.7 1.1,-7.6 4.8,-8.7l38 -11c3.7,-1.1 7.6,1.1 8.7,4.8 1.1,3.7 -1.1,7.6 -4.8,8.7l-38 11c-0.7,0.2 -1.4,0.3 -2,0.3zm-8 -27c-3,0 -5.7,-1.9 -6.7,-4.9 -1.2,-3.7 0.9,-7.6 4.6,-8.8l38 -12c3.7,-1.2 7.6,0.9 8.8,4.6 1.2,3.7 -0.9,7.6 -4.6,8.8l-38 12c-0.7,0.2 -1.4,0.3 -2.1,0.3zm-27.3 -28.2l0 0c0,0 0,0 0,0zm-1.7 -6.8l0 0 0 0z" id="id_110" style="fill: rgb(51, 51, 51);"></path>
  <polygon class="fil1" points="446,243.64 446,243.64 " id="id_111" style="fill: rgb(51, 51, 51);"></polygon>
  <path class="fil1" d="M674 636.64l-498 0c-3.9,0 -7,-3.1 -7,-7l0 -30c0,-3.9 3.1,-7 7,-7l498 0c3.9,0 7,3.1 7,7l0 30c0,3.9 -3.1,7 -7,7z" id="id_112" style="fill: rgb(51, 51, 51);"></path>
 </g>
</svg>