<svg xmlns="http://www.w3.org/2000/svg" xml:space="preserve" width="2.66666in" height="2.66666in" version="1.1" style="shape-rendering:geometricPrecision; text-rendering:geometricPrecision; image-rendering:optimizeQuality; fill-rule:evenodd; clip-rule:evenodd" viewBox="0 0 2667 2667" xmlns:xlink="http://www.w3.org/1999/xlink">
 <defs>
  <style type="text/css">
   
    .fil0 {fill:#1D81CE}
    .fil1 {fill:white}
   
  </style>
 </defs>
 <g id="Layer_x0020_1">
  <metadata id="CorelCorpID_0Corel-Layer"></metadata>
  <circle class="fil0" cx="1333" cy="1333" r="1333" id="id_103" style="fill: rgb(255, 255, 255);"></circle>
  <path class="fil1" d="M556 1064c0,-13 10,-23 22,-23l1510 0c13,0 23,10 23,23l0 117 -1555 0 0 -117zm1124 1123l-694 0c-12,0 -22,-11 -22,-23l0 -512 739 0 0 512c0,12 -10,23 -23,23zm-122 -80c8,0 13,-5 13,-12 0,-7 -5,-13 -13,-13l-450 0c-7,0 -13,6 -13,13 0,7 6,12 13,12l450 0zm0 -116c8,0 13,-6 13,-13 0,-7 -5,-13 -13,-13l-450 0c-7,0 -13,6 -13,13 0,7 6,13 13,13l450 0zm0 -117c8,0 13,-6 13,-13 0,-7 -5,-13 -13,-13l-450 0c-7,0 -13,6 -13,13 0,7 6,13 13,13l450 0zm0 -117c8,0 13,-6 13,-13 0,-7 -5,-12 -13,-12l-450 0c-7,0 -13,5 -13,12 0,7 6,13 13,13l450 0zm208 -131l-865 0c-12,0 -23,-11 -23,-23 0,-13 11,-23 23,-23l865 0c12,0 22,10 22,23 0,12 -10,23 -22,23zm-905 -612l0 -324c0,-12 10,-22 23,-22l53 0 0 346 -76 0zm869 -346l53 0c12,0 22,10 22,22l0 324 -75 0 0 -346zm-766 346l0 -511c0,-13 10,-23 22,-23l694 0c13,0 23,10 23,23l0 511 -739 0zm159 435c38,0 70,-31 70,-69 0,-38 -32,-70 -70,-70 -38,0 -70,31 -70,70 0,38 32,69 70,69zm0 -113c24,0 44,20 44,44 0,24 -20,44 -44,44 -24,0 -44,-20 -44,-44 0,-24 20,-44 44,-44zm-204 113c39,0 70,-31 70,-69 0,-38 -31,-70 -70,-70 -38,0 -69,31 -69,70 0,38 31,69 69,69zm0 -113c25,0 44,20 44,44 0,24 -19,44 -44,44 -24,0 -44,-20 -44,-44 0,-24 20,-44 44,-44zm-204 113c39,0 70,-31 70,-69 0,-38 -31,-70 -70,-70 -38,0 -69,31 -69,70 0,38 31,69 69,69zm0 -113c25,0 45,20 45,44 0,24 -20,44 -45,44 -24,0 -44,-20 -44,-44 0,-24 20,-44 44,-44zm1293 57c7,0 13,-6 13,-13 0,-7 -6,-13 -13,-13l-555 0c-7,0 -13,6 -13,13 0,7 6,13 13,13l555 0zm103 -187l0 588c0,13 -10,23 -23,23l-358 0 0 -165 36 0c27,0 49,-22 49,-49 0,-27 -22,-50 -49,-50l-865 0c-27,0 -49,23 -49,50 0,27 22,49 49,49l36 0 0 165 -359 0c-12,0 -22,-10 -22,-23l0 -588 1555 0z" id="id_104" style="fill: rgb(51, 51, 51);"></path>
 </g>
</svg>