<svg xmlns="http://www.w3.org/2000/svg" xml:space="preserve" width="3in" height="3in" style="shape-rendering:geometricPrecision; text-rendering:geometricPrecision; image-rendering:optimizeQuality; fill-rule:evenodd; clip-rule:evenodd" viewBox="0 0 3 3" xmlns:xlink="http://www.w3.org/1999/xlink">
 <defs>
  <style type="text/css">
   
    .fil0 {fill:#333333}
    .fil1 {fill:white}
   
  </style>
 </defs>
 <g id="Layer_x0020_1">
  <metadata id="CorelCorpID_0Corel-Layer"></metadata>
  <circle class="fil0" cx="1.5" cy="1.5" r="1.5" id="id_114" style="fill: rgb(255, 255, 255);"></circle>
  <path class="fil1" d="M1.81126 1.53519l-0.622902 0c-0.0147283,0 -0.0266575,-0.0119291 -0.0266575,-0.0266575l0 -0.534409c0,-0.0147283 0.0119291,-0.0266535 0.0266575,-0.0266535l0.622902 0c0.0147283,0 0.0266535,0.0119252 0.0266535,0.0266535l0 0.534421c0,0.0147165 -0.0119409,0.0266457 -0.0266535,0.0266457zm-0.399441 -0.348398l-0.0755669 0c-0.0147283,0 -0.0266535,-0.0119252 -0.0266535,-0.0266535 0,-0.0147283 0.0119252,-0.0266575 0.0266535,-0.0266575l0.0755669 0c0.0147283,0 0.0266575,0.0119291 0.0266575,0.0266575 0,0.0147283 -0.0119449,0.0266535 -0.0266575,0.0266535zm0.251547 0l-0.0755551 0c-0.0147283,0 -0.0266535,-0.0119252 -0.0266535,-0.0266535 0,-0.0147283 0.0119252,-0.0266575 0.0266535,-0.0266575l0.0755551 0c0.0147283,0 0.0266535,0.0119291 0.0266535,0.0266575 0,0.0147283 -0.0119409,0.0266535 -0.0266535,0.0266535zm-0.0852441 0.175079l-0.156626 0c-0.0147283,0 -0.0266535,-0.0119252 -0.0266535,-0.0266535 0,-0.0147283 0.0119252,-0.0266535 0.0266535,-0.0266535l0.156626 0c0.0147283,0 0.0266535,0.0119252 0.0266535,0.0266535 0,0.0147283 -0.0119252,0.0266535 -0.0266535,0.0266535z" id="id_115" style="fill: rgb(51, 51, 51);"></path>
  <path class="fil1" d="M1.81126 2.12444l-0.133587 0c-0.0147283,0 -0.0266535,-0.0119252 -0.0266535,-0.0266535 0,-0.0147283 0.0119252,-0.0266575 0.0266535,-0.0266575l0.106929 0 0 -0.371921 -0.569591 0 0 0.371921 0.107429 0c0.0147283,0 0.0266575,0.0119291 0.0266575,0.0266575 0,0.0147283 -0.0119291,0.0266535 -0.0266575,0.0266535l-0.134083 0c-0.0147283,0 -0.0266575,-0.0119252 -0.0266575,-0.0266535l0 -0.425236c0,-0.0147283 0.0119291,-0.0266535 0.0266575,-0.0266535l0.622902 0c0.0147283,0 0.0266535,0.0119252 0.0266535,0.0266535l0 0.425236c0,0.0147283 -0.0119409,0.0266535 -0.0266535,0.0266535z" id="id_116" style="fill: rgb(51, 51, 51);"></path>
  <path class="fil1" d="M1.65552 1.69923l-0.311433 0c-0.0147283,0 -0.0266575,-0.0119252 -0.0266575,-0.0266575l0 -0.104051 0.364748 0 0 0.104051c0,0.0147165 -0.0119291,0.0266575 -0.0266575,0.0266575z" id="id_117" style="fill: rgb(51, 51, 51);"></path>
  <path class="fil1" d="M1.87124 1.08539c0.0798031,0.00710236 0.142563,0.074315 0.142563,0.155941 1.5748e-005,0.081622 -0.0627559,0.14885 -0.142563,0.155953l0 -0.311894z" id="id_118" style="fill: rgb(51, 51, 51);"></path>
  <path class="fil1" d="M1.12837 1.39728c-0.0798031,-0.00710236 -0.142575,-0.074315 -0.142575,-0.155937 0,-0.081622 0.0627835,-0.14885 0.142575,-0.155953l0 0.31189z" id="id_119" style="fill: rgb(51, 51, 51);"></path>
  <path class="fil1" d="M1.49981 1.00078c-0.0147283,0 -0.0266535,-0.0119291 -0.0266535,-0.0266575l0 -0.191705c0,-0.0147323 0.0119252,-0.0266575 0.0266535,-0.0266575 0.0147205,0 0.0266575,0.0119252 0.0266575,0.0266575l0 0.191705c0,0.0147283 -0.011937,0.0266575 -0.0266575,0.0266575z" id="id_120" style="fill: rgb(51, 51, 51);"></path>
  <path class="fil1" d="M1.49981 0.809071c-0.0446732,0 -0.0810039,-0.0363465 -0.0810039,-0.0810039 0,-0.0446732 0.0363465,-0.0810197 0.0810039,-0.0810197 0.0446654,0 0.0810039,0.0363465 0.0810039,0.0810197 0,0.0446693 -0.0363386,0.0810039 -0.0810039,0.0810039z" id="id_121" style="fill: rgb(51, 51, 51);"></path>
  <path class="fil1" d="M2.09659 1.86682c-0.012689,1.5748e-005 -0.0239488,-0.0090748 -0.0262244,-0.0220157 -0.0285276,-0.161654 -0.247717,-0.146366 -0.257004,-0.145657 -0.014437,0.00117717 -0.0275,-0.0097874 -0.0286693,-0.0244646 -0.00116929,-0.0146772 0.00974409,-0.0274882 0.0244213,-0.0286811 0.0955433,-0.00767323 0.284181,0.0219646 0.313752,0.189531 0.00256693,0.0145079 -0.00711811,0.0283228 -0.0216181,0.0308898 -0.00157087,0.000271654 -0.00312992,0.000397638 -0.00465748,0.000397638z" id="id_122" style="fill: rgb(51, 51, 51);"></path>
  <path class="fil1" d="M0.903035 1.86682c-0.00153937,0 -0.00309449,-0.000125984 -0.00466142,-0.000401575 -0.0144921,-0.00256693 -0.024185,-0.0163819 -0.0216181,-0.0308898 0.0295709,-0.167598 0.21824,-0.197232 0.313764,-0.189531 0.0146772,0.00119685 0.0255984,0.0140512 0.0244213,0.0287126 -0.0011811,0.0146772 -0.0139134,0.025626 -0.0286969,0.024437 -0.00958268,-0.000779528 -0.228469,-0.0158858 -0.256988,0.145657 -0.00228346,0.0129252 -0.0135315,0.0220157 -0.0262205,0.0220157z" id="id_123" style="fill: rgb(51, 51, 51);"></path>
  <path class="fil1" d="M0.997528 1.96133c-0.0147283,0 -0.0266575,-0.0119252 -0.0266575,-0.0266535 0,-0.0374173 -0.0304409,-0.0678701 -0.0678701,-0.0678701 -0.0353346,0 -0.0643858,0.0265276 -0.0675984,0.0616929 -0.00133071,0.0146772 -0.0143307,0.0255315 -0.0289567,0.024126 -0.0146614,-0.00133071 -0.0254606,-0.0142992 -0.024126,-0.0289567 0.00571654,-0.0628071 0.0576024,-0.110189 0.120681,-0.110189 0.066815,0 0.121181,0.0543622 0.121181,0.121181 0,0.0147441 -0.0119409,0.0266693 -0.0266535,0.0266693z" id="id_124" style="fill: rgb(51, 51, 51);"></path>
  <path class="fil1" d="M2.19114 1.96133c-0.0147283,0 -0.0266535,-0.0119252 -0.0266535,-0.0266535 0,-0.0374173 -0.0304449,-0.0678701 -0.067874,-0.0678701 -0.0353307,0 -0.0643858,0.0265276 -0.0675827,0.0616929 -0.00134646,0.0146614 -0.0142953,0.0255315 -0.0289567,0.024126 -0.0146772,-0.00133071 -0.0254764,-0.0142992 -0.024126,-0.0289567 0.00572047,-0.0628071 0.0576024,-0.110189 0.120673,-0.110189 0.066815,0 0.121181,0.0543622 0.121181,0.121181 -7.87402e-006,0.0147441 -0.0119331,0.0266693 -0.0266614,0.0266693z" id="id_125" style="fill: rgb(51, 51, 51);"></path>
  <path class="fil1" d="M1.56066 2.35296l-0.121701 0c-0.0147283,0 -0.0266535,-0.0119252 -0.0266535,-0.0266535l0 -0.030252c-0.0138858,-0.00656299 -0.0269055,-0.0146457 -0.0389843,-0.0241811l-0.0276417 0.0159646c-0.00612598,0.00355118 -0.0133976,0.00449606 -0.0202283,0.00266535 -0.00683071,-0.00183071 -0.0126614,-0.00629134 -0.016189,-0.0124252l-0.0608583 -0.105413c-0.00735827,-0.0127441 -0.00300394,-0.0290591 0.00974409,-0.0364134l0.0371614 -0.0214528c-2.3622e-005,-0.00123228 -2.3622e-005,-0.0024685 -2.3622e-005,-0.00369291 0,-0.00977559 0.000692913,-0.0195354 0.00206693,-0.0291693l-0.0391929 -0.0226299c-0.0127441,-0.00735433 -0.0171142,-0.0236575 -0.00975591,-0.0364134l0.0608504 -0.105413c0.00353937,-0.00612598 0.00935433,-0.0105945 0.016185,-0.0124252 0.00681496,-0.0018622 0.0140945,-0.000877953 0.0202441,0.00264961l0.0486732 0.0281142c0.00582677,-0.00351181 0.0118268,-0.00673228 0.0179488,-0.00963386l0 -0.0568898c0,-0.0147283 0.0119252,-0.0266535 0.0266535,-0.0266535l0.121713 0c0.0147283,0 0.0266535,0.0119252 0.0266535,0.0266535l0 0.0569606c0.00612598,0.00290157 0.012122,0.00611024 0.017937,0.00962598l0.0487008 -0.0281142c0.00611024,-0.00354331 0.0133701,-0.00448819 0.0202283,-0.00264961 0.00683465,0.00183071 0.0126457,0.00629134 0.016189,0.0124252l0.0608583 0.105413c0.00352756,0.00612205 0.00448819,0.0133937 0.00265354,0.0202283 -0.00183858,0.00683071 -0.00629134,0.0126457 -0.0124252,0.016185l-0.0392087 0.0226417c0.00138976,0.00962205 0.00206693,0.0193819 0.00206693,0.0291693 0,0.00122047 -1.5748e-005,0.00245669 -2.3622e-005,0.00367717l0.0371654 0.0214488c0.00612205,0.00354331 0.0105906,0.00935827 0.0124252,0.016189 0.00183071,0.00683071 0.000874016,0.0141024 -0.00265354,0.0202283l-0.0608583 0.105413c-0.00354331,0.00612205 -0.00935433,0.0105945 -0.016189,0.0124252 -0.00685827,0.00183071 -0.0141181,0.000874016 -0.0202283,-0.00264961l-0.0276417 -0.0159685c-0.0120787,0.00953937 -0.0251102,0.017622 -0.0389961,0.0241693l0 0.0302638c-7.87402e-006,0.0146614 -0.011937,0.0265827 -0.0266654,0.0265827zm-0.0608504 -0.139126c-0.0639685,0 -0.116028,-0.0520591 -0.116028,-0.116039 0,-0.0639803 0.0520433,-0.116028 0.116028,-0.116028 0.0639843,0 0.116028,0.0520433 0.116028,0.116028 0,0.0639843 -0.0520591,0.116039 -0.116028,0.116039z" id="id_126" style="fill: rgb(51, 51, 51);"></path>
 </g>
</svg>