<svg xmlns="http://www.w3.org/2000/svg" xml:space="preserve" width="2.66666in" height="2.66666in" version="1.1" style="shape-rendering:geometricPrecision; text-rendering:geometricPrecision; image-rendering:optimizeQuality; fill-rule:evenodd; clip-rule:evenodd" viewBox="0 0 2666.66 2666.66" xmlns:xlink="http://www.w3.org/1999/xlink" xmlns:xodm="http://www.corel.com/coreldraw/odm/2003">
 <defs>
  <style type="text/css">
   
    .fil1 {fill:#FEFEFE}
    .fil0 {fill:#743BBC}
   
  </style>
 </defs>
 <g id="Layer_x0020_1">
  <metadata id="CorelCorpID_0Corel-Layer"></metadata>
  <circle class="fil0" cx="1333.33" cy="1333.33" r="1333.33" id="id_104" style="fill: rgb(255, 255, 255);"></circle>
  <path class="fil1" d="M2072.36 1956.63l-1477.92 0c-63.11,0 -114.44,-51.33 -114.44,-114.44l0 -1017.7c0,-63.11 51.33,-114.44 114.44,-114.44l1477.78 -0c63.11,0 114.44,51.33 114.44,114.44l0 1017.7c0,63.09 -51.18,114.45 -114.31,114.45zm-13.62 -1051.09l-707.49 0c-25.82,0 -25.83,-39.24 0,-39.24l707.49 0c25.76,0 25.93,39.24 0,39.24zm-1328.06 52.04c-39.52,0 -71.8,-32.15 -71.8,-71.8 0,-39.64 32.15,-71.8 71.8,-71.8 39.64,0 71.79,32.16 71.79,71.8 0,39.64 -32.28,71.8 -71.79,71.8zm207.49 0c-39.52,0 -71.8,-32.15 -71.8,-71.8 0,-39.64 32.15,-71.8 71.8,-71.8 39.51,0 71.79,32.16 71.79,71.8 0,39.64 -32.15,71.8 -71.79,71.8zm207.63 0c-39.51,0 -71.8,-32.15 -71.8,-71.8 0,-39.64 32.16,-71.8 71.8,-71.8 39.51,0 71.8,32.16 71.8,71.8 0,39.64 -32.29,71.8 -71.8,71.8zm968.93 87.87l-1562.79 0 0 796.73c0,23.4 19.11,42.5 42.5,42.5l1477.78 -0c23.4,0 42.5,-19.1 42.5,-42.5l0 -796.73z" id="id_105" style="fill: rgb(51, 51, 51);"></path>
  <path class="fil1" d="M2014.59 1748.31l-1355.57 0c-10.9,0 -19.62,-8.86 -19.62,-19.63l0 -510.89c0,-10.9 8.72,-19.62 19.62,-19.62l1355.57 0c10.76,0 19.62,8.72 19.62,19.63l0 510.89c0,10.9 -8.86,19.62 -19.62,19.62zm-1103.94 -97.82c-0.14,0 -0.14,0 0,0 -9.26,0 -17.3,-6.54 -19.21,-15.53l-67.58 -315.26c-5.46,-25.23 32.95,-33.49 38.42,-8.17l48.63 227.38 50.27 -225.47c4.62,-20.37 33.48,-20.22 38.15,-0.41l53.41 222.34 52.45 -224.25c5.85,-25.06 44.17,-16.12 38.15,8.99l-71.25 304.9c-4.65,20.02 -33.28,20.02 -38.15,0.13l-52.86 -220.43 -51.36 230.38c-2.04,8.99 -9.94,15.4 -19.07,15.4zm353 0c0,0 -0.13,0 0,0 -9.27,0 -17.3,-6.54 -19.2,-15.53l-67.44 -315.26c-5.46,-25.24 32.95,-33.48 38.41,-8.17l48.64 227.38 50.27 -225.47c4.54,-20.03 33.38,-20.67 38.15,-0.41l53.41 222.34 52.31 -224.25c5.89,-25.24 44.12,-15.98 38.28,8.99l-71.25 304.9c-4.66,20.05 -33.43,20 -38.14,0.13l-52.86 -220.43 -51.37 230.38c-2.04,8.99 -10.08,15.4 -19.21,15.4zm353 0c-9.27,0 -17.3,-6.54 -19.2,-15.53l-67.44 -315.26c-5.46,-25.24 32.95,-33.48 38.41,-8.17l48.64 227.38 50.27 -225.47c4.53,-19.96 33.34,-20.82 38.15,-0.41l53.41 222.34 52.45 -224.25c5.9,-25.24 44.12,-15.99 38.29,8.99l-71.26 304.9c-4.66,20.05 -33.43,20 -38.14,0.13l-52.86 -220.43 -51.36 230.38c-2.18,8.99 -10.22,15.4 -19.35,15.4z" id="id_106" style="fill: rgb(51, 51, 51);"></path>
 </g>
</svg>