<svg xmlns="http://www.w3.org/2000/svg" xml:space="preserve" width="11.1111in" height="11.1111in" version="1.1" style="shape-rendering:geometricPrecision; text-rendering:geometricPrecision; image-rendering:optimizeQuality; fill-rule:evenodd; clip-rule:evenodd" viewBox="0 0 11111 11111" xmlns:xlink="http://www.w3.org/1999/xlink">
 <defs>
  <style type="text/css">
   
    .fil1 {fill:#333333}
    .fil0 {fill:#D7D7D7}
    .fil2 {fill:white}
   
  </style>
 </defs>
 <g id="_323247232">
  <ellipse class="fil0" cx="5791" cy="5781" rx="5320" ry="5330" id="id_104" style="fill: rgb(255, 255, 255); stroke: rgb(255, 255, 255);"></ellipse>
  <ellipse class="fil1" cx="5320" cy="5330" rx="5320" ry="5330" id="id_105" style="stroke: rgb(255, 255, 255); fill: rgb(255, 255, 255);"></ellipse>
 </g>
 <g id="Layer_x0020_1">
  <metadata id="CorelCorpID_0Corel-Layer"></metadata>
  <g>
   <path class="fil2" d="M2601 4135c-65,0 -121,-55 -121,-121l0 -946c0,-92 102,-151 182,-104l812 473c80,46 80,162 0,208l-812 473c-19,11 -40,17 -61,17zm6389 413l-765 0 0 1649c0,67 -55,121 -121,121l-931 0 375 513c42,58 23,143 -40,177l-737 405 329 423c245,-87 509,94 509,360 0,210 -171,381 -381,381 -309,0 -483,-345 -318,-592l-417 -535c-45,-58 -27,-145 37,-181l742 -406 -398 -545 -1514 0 452 715c12,19 19,41 19,64l0 208c151,51 261,194 261,362 0,211 -171,382 -382,382 -210,0 -381,-171 -381,-382 0,-168 109,-311 260,-362l0 -173 -515 -814 -837 0 -398 545 742 406c64,36 82,123 37,181l-417 535c165,247 -9,592 -318,592 -210,0 -381,-171 -381,-381 0,-265 265,-447 509,-360l330 -423 -738 -405c-63,-34 -82,-119 -40,-177l375 -513 -931 0c-66,0 -120,-54 -120,-121l0 -1649 -766 0c-67,0 -121,-54 -121,-121l0 -1772c0,-67 54,-121 121,-121l1773 0c66,0 120,54 120,121l0 1772c0,67 -54,121 -120,121l-766 0 0 1528 2307 0 0 -642 -766 0c-67,0 -120,-54 -121,-120l0 -1773c0,-67 55,-121 121,-121l1773 0c67,0 121,54 121,121l0 1773c0,34 -15,65 -38,87l0 0c-1,1 -3,3 -4,4l0 0c-27,20 -44,27 -79,29l-766 0 0 642 2307 0 0 -1528 -766 0c-66,0 -120,-54 -120,-121l0 -1772c0,-67 54,-121 120,-121l1773 0c67,0 121,54 121,121l0 1772c0,67 -54,121 -121,121zm-1652 -241l1531 0 0 -1532 -1531 0 0 1532zm708 -402l-414 0c-67,0 -121,-54 -121,-121l0 -486c0,-67 54,-121 121,-121l415 0 489 -170c77,-27 160,32 160,114l0 840c0,82 -84,141 -160,114l-490 -170zm142 -521l0 314 267 93 0 -500 -267 93zm-435 279l193 0 0 -244 -193 0 0 244zm-2043 3864c-77,0 -140,63 -140,140 0,78 63,140 140,140 77,0 140,-62 140,-140 0,-77 -63,-140 -140,-140zm-1827 529c-77,0 -139,63 -139,140 0,77 62,140 139,140 78,0 140,-63 140,-140 0,-77 -62,-140 -140,-140zm3345 0c-78,0 -140,63 -140,140 0,77 62,140 140,140 77,0 140,-63 140,-140 0,-77 -63,-140 -140,-140zm-907 -2863l0 -50 -363 -625 -393 675 756 0zm0 -530l0 -1001 -1531 0 0 1204 248 -425c46,-80 162,-80 208,0l239 409 368 -633c46,-79 163,-79 209,0l259 446zm204 738c-1,1 -3,3 -4,4l4 -4zm-1646 -208l406 0 60 -103 -203 -349 -263 452zm-2637 -886l1531 0 0 -1532 -1531 0 0 1532zm480 -1029l0 526 451 -263 -451 -263z" id="id_106" style="fill: rgb(51, 51, 51);"></path>
  </g>
 </g>
</svg>