<svg xmlns="http://www.w3.org/2000/svg" xml:space="preserve" width="71.9666mm" height="71.9666mm" version="1.1" style="shape-rendering:geometricPrecision; text-rendering:geometricPrecision; image-rendering:optimizeQuality; fill-rule:evenodd; clip-rule:evenodd" viewBox="0 0 7197 7197" xmlns:xlink="http://www.w3.org/1999/xlink">
 <defs>
  <style type="text/css">
   
    .fil0 {fill:#EA4C89}
    .fil1 {fill:white}
   
  </style>
 </defs>
 <g id="Layer_x0020_1">
  <metadata id="CorelCorpID_0Corel-Layer"></metadata>
  <circle class="fil0" cx="3598" cy="3598" r="3598" id="id_113" style="fill: rgb(255, 255, 255);"></circle>
  <g id="_606191560">
   <polygon class="fil1" points="5122,3436 5122,3436 " id="id_114" style="fill: rgb(51, 51, 51);"></polygon>
   <path class="fil1" d="M5122 5630l-3054 0c-64,0 -113,-49 -113,-113l0 -2091c0,-64 49,-113 113,-113l3054 0c64,0 113,49 113,113l0 2091c0,64 -49,113 -113,113zm-861 -691l-1329 0c-258,0 -466,-208 -466,-466 0,-254 208,-462 466,-462l1329 0c254,0 463,208 463,462 0,258 -209,466 -463,466zm-1329 -805c-187,0 -342,152 -342,339 0,187 155,342 342,342l1329 0c187,0 339,-151 339,-342 0,-187 -152,-339 -339,-339l-1329 0zm141 537c-110,0 -198,-89 -198,-198 0,-106 88,-194 198,-194 106,0 194,88 194,194 0,109 -85,198 -194,198zm0 -268c-39,0 -74,31 -74,70 0,39 31,74 74,74 39,0 70,-32 70,-74 0,-39 -31,-70 -70,-70zm1047 268c-109,0 -197,-89 -197,-198 0,-106 88,-194 197,-194 106,0 194,88 194,194 0,109 -88,198 -194,198zm0 -268c-38,0 -74,31 -74,70 0,39 32,74 74,74 39,0 71,-32 71,-74 0,-39 -32,-70 -71,-70z" id="id_115" style="fill: rgb(51, 51, 51);"></path>
   <path class="fil1" d="M1836 5148c-246,-130 -407,-387 -407,-675 0,-288 161,-547 407,-679l0 1354z" id="id_116" style="fill: rgb(51, 51, 51);"></path>
   <path class="fil1" d="M5353 3792c250,130 415,389 415,681 0,293 -163,552 -415,682l0 -1363z" id="id_117" style="fill: rgb(51, 51, 51);"></path>
   <path class="fil1" d="M3598 3436c-35,0 -63,-28 -63,-63l0 -1119c0,-35 28,-63 63,-63 36,0 64,28 64,63l0 1122c-4,35 -32,60 -64,60z" id="id_118" style="fill: rgb(51, 51, 51);"></path>
   <path class="fil1" d="M3598 2314c-208,0 -377,-165 -377,-373 0,-209 169,-374 377,-374 205,0 371,169 371,374 0,204 -166,373 -371,373z" id="id_119" style="fill: rgb(51, 51, 51);"></path>
   <path class="fil1" d="M2611 3436c-21,0 -43,-10 -53,-32l-561 -970c-18,-28 -7,-67 21,-84 28,-18 67,-7 85,21l561 973c17,29 7,67 -22,85 -10,7 -21,7 -31,7z" id="id_120" style="fill: rgb(51, 51, 51);"></path>
   <polygon class="fil1" points="1740,1866 1740,1866 " id="id_121" style="fill: rgb(51, 51, 51);"></polygon>
   <path class="fil1" d="M1895 2508c-32,0 -67,-3 -99,-14 -95,-24 -173,-88 -222,-173 -50,-88 -64,-186 -36,-285 25,-95 85,-177 170,-226 176,-102 405,-42 511,134 50,88 64,187 39,286 -25,95 -88,176 -173,226 -63,35 -127,52 -190,52z" id="id_122" style="fill: rgb(51, 51, 51);"></path>
   <path class="fil1" d="M4579 3436c-11,0 -21,-3 -32,-7 -28,-18 -39,-53 -21,-85l561 -973c17,-28 56,-39 84,-21 29,17 39,56 22,84l-561 974c-11,18 -32,28 -53,28z" id="id_123" style="fill: rgb(51, 51, 51);"></path>
   <path class="fil1" d="M5295 2508c-64,0 -131,-17 -187,-49 -176,-102 -236,-332 -138,-511 106,-177 332,-237 512,-134 85,49 148,130 173,225 24,96 14,198 -36,283 -49,88 -130,148 -225,172 -32,7 -64,14 -99,14z" id="id_124" style="fill: rgb(51, 51, 51);"></path>
  </g>
 </g>
</svg>