<svg xmlns="http://www.w3.org/2000/svg" xmlns:xlink="http://www.w3.org/1999/xlink" version="1.1" id="Layer_1" x="0px" y="0px" viewBox="-3 -3 206 46" style="enable-background:new 0 0 200 40;" xml:space="preserve"><g id="deeditor_bgCarrier" stroke-width="0">
    <rect id="dee_c_e" x="-3" y="-3" width="206" height="46" rx="0" fill="#000000" strokewidth="0"/>
  </g>
<style type="text/css">
	.st0{fill:#ffffff;}
</style>
<path class="st0" d="M104.2,1.1C101.1,1.1,47.6,1,47.6,1c-3.8,0-6.9,3.1-6.9,6.8v13.9c0,4,2.3,5.4,6.5,5.8  c4.2,0.4,12.6,1.3,12.6,1.3v9.5l9.2-8.6c0,0,28.3,2.8,31.2,3.1c3.7,0.4,5.2-2.2,5.7-5.7c0.2-1.7,2.8-20.2,2.8-20.2  C109,3.8,107.4,1.1,104.2,1.1z M50.6,22.3c-1.3,0-2.5-0.2-3.9-0.8l-0.2-2.4l0,0c0,0,0,0,0,0c0-0.2,0.2-0.4,0.4-0.4  c0.1,0,0.2,0,0.3,0.1l0,0c0.8,0.8,2,1.2,3.3,1.2c1.7,0,2.9-1,2.9-2.4c0-1.1-0.6-1.8-2.3-2.6c-2.7-1.4-3.5-2-4.1-3.3  c-0.2-0.5-0.3-1.1-0.3-1.7c0-2.6,2.1-4.4,5-4.4c0.8,0,1.5,0.1,2.6,0.4c0.2,0.1,1.4,0.5,1.4,0.5v2.2c0,0.2-0.2,0.4-0.4,0.4  c-0.1,0-0.2-0.1-0.3-0.1v0c-0.7-0.7-1.8-1.1-3-1.1c-1.4,0-2.4,0.8-2.4,1.9c0,1,0.4,1.4,3.3,2.8c1.9,1,2.8,1.8,3.2,3.1  c0.2,0.6,0.3,1.1,0.3,1.8C56.3,20.4,54,22.3,50.6,22.3z M74.6,21.8c-0.6,0-0.9,0-1.4,0c-0.5,0-0.8,0-1.4,0l0-6.4  c0-2.2-0.5-2.9-1.9-2.9c-1.6,0-2.4,1.1-2.4,3.3l0,6c-0.5,0-0.9,0-1.3,0c-0.4,0-0.8,0-1.5,0l0-6.3c0-2.3-0.5-3-1.8-3  c-1.6,0-2.5,1.1-2.5,3.2l0,6.1c-0.5,0-0.9,0-1.3,0c-0.5,0-0.9,0-1.4,0l0-6.4c0-2.6-0.1-3.7-0.5-4.2h0C57,11.1,57,11.1,57,11  c0-0.2,0.2-0.4,0.4-0.4c0,0,0,0,0,0h2.1c0,0,0,0,0,0c0.2,0,0.4,0.1,0.4,0.3h0c0,0.2,0.1,0.4,0.1,0.7l0.1,0.6c0.8-1.4,2-2.1,3.7-2.1  c1.6,0,2.7,0.7,3.3,2c0.8-1.3,1.9-2,3.6-2c1.4,0,2.7,0.6,3.3,1.6c0.3,0.5,0.5,1.1,0.5,1.7c0,0.1,0,0.4,0,0.6V21.8z M86.3,15.4  L86.3,15.4l0,6.5c-0.3,0-0.6,0-0.9,0c-0.6,0-1,0-1.9,0v-5.6c-0.5,0.2-0.8,0.3-1.6,0.5c-2.7,0.5-3.2,0.7-3.2,1.8  c0,0.9,0.7,1.5,1.8,1.5c0.5,0,1-0.1,1.4-0.3c0.1,0,0.1-0.1,0.2-0.1c0.2,0,0.4,0.2,0.4,0.4c0,0.1,0,0.1,0,0.2l-0.4,1.4  c-0.7,0.3-1.5,0.4-2.4,0.4c-2.4,0-3.9-1.4-3.9-3.6c0-1.6,1-2.8,2.5-3.3c0.8-0.2,1.3-0.3,3.7-0.7c1.1-0.2,1.5-0.5,1.5-1.2  c0-0.8-0.8-1.3-2.3-1.3c-1.2,0-2.4,0.4-3.3,1c-0.1,0.1-0.2,0.1-0.3,0.1c-0.2,0-0.4-0.2-0.4-0.4c0,0,0,0,0,0h0  c0.1-0.6,0.1-1.5,0.2-1.9c1.3-0.5,2.6-0.8,4.4-0.8c3,0,4.4,1.3,4.4,4.2V15.4z M95.5,12.7L95.5,12.7c0,0.2-0.2,0.4-0.4,0.4  c-0.1,0-0.2,0-0.3-0.1v0c-0.3-0.2-0.6-0.3-1-0.3c-1.6,0-2.5,1.3-2.5,3.6l0,5.5c-0.5,0-0.8,0-1.2,0c-0.5,0-1,0-1.5,0l0,0l0-6.4  c0-2.5-0.1-3.7-0.5-4.2l0,0c-0.1-0.1-0.1-0.2-0.1-0.3c0-0.2,0.2-0.4,0.4-0.4c0,0,0,0,0,0h2.5c0.1,0.5,0.1,0.7,0.2,1.6  c0.8-1.5,1.6-2,2.9-2c0.6,0,1.1,0.1,1.5,0.3V12.7z M102.1,20.1l-0.1,1.7c-1,0.4-1.7,0.5-2.6,0.5c-2.2,0-2.9-0.8-2.9-3.3v-6.3  l2.1-4.4h0.7v2.2h2.6v2.2h-2.6v5.5c0,1.2,0.3,1.7,1.2,1.7c0.4,0,0.7-0.1,1.1-0.3c0.1,0,0.1-0.1,0.2-0.1  C101.9,19.6,102.1,19.8,102.1,20.1C102.1,20,102.1,20,102.1,20.1z" fill="#ffffff"/>
<path d="M130.6,10.1c-1.8,0-3.1,0.3-4.4,0.8c0,0.4-0.1,1.3-0.2,1.9h0c0,0,0,0,0,0c0,0.2,0.2,0.4,0.4,0.4c0.1,0,0.2,0,0.3-0.1  c0.9-0.6,2-1,3.3-1c1.4,0,2.3,0.5,2.3,1.3c0,0.6-0.4,1-1.5,1.2c-2.4,0.4-2.9,0.5-3.7,0.7c-1.6,0.5-2.5,1.7-2.5,3.3  c0,2.2,1.5,3.6,3.9,3.6c0.8,0,1.7-0.2,2.4-0.4l0.4-1.4c0-0.1,0-0.1,0-0.2c0-0.2-0.2-0.4-0.4-0.4c-0.1,0-0.1,0-0.2,0.1  c-0.4,0.2-0.9,0.3-1.4,0.3c-1.1,0-1.8-0.6-1.8-1.5c0-1.1,0.5-1.4,3.2-1.8c0.9-0.2,1.1-0.2,1.6-0.5v5.6c0.9,0,1.3,0,1.9,0  c0.3,0,0.6,0,0.9,0v-6.5h0v-1.1C135,11.4,133.6,10.1,130.6,10.1z" fill="#ffffff"/>
<path d="M120.4,5.9L120.4,5.9C120.4,5.9,120.4,5.9,120.4,5.9c-0.2,0-0.4,0.2-0.4,0.4c0,0.1,0,0.2,0.1,0.3l0,0  c0.4,0.5,0.5,1.6,0.5,4.2l0,11c0.6,0,1,0,1.4,0c0.5,0,0.8,0,1.4,0l0-16H120.4z" fill="#ffffff"/>
<path d="M119.1,18.9c0-0.2-0.2-0.4-0.4-0.4c-0.1,0-0.2,0-0.3,0.1c-1,0.8-2.4,1.2-3.8,1.2c-3.2,0-5.4-2.4-5.4-6  c0-3.5,2.3-5.9,5.5-5.9c1.5,0,2.7,0.4,3.7,1.1v0c0.1,0.1,0.2,0.1,0.3,0.1c0.2,0,0.4-0.2,0.4-0.4c0,0,0,0,0,0V6.4  c0,0-1.3-0.4-1.7-0.4c-1.2-0.3-2.2-0.5-3.3-0.5c-4.7,0-8.1,3.5-8.1,8.4c0,5,3.5,8.4,8.5,8.4c1.6,0,2.9-0.2,4.3-0.8L119.1,18.9  L119.1,18.9C119.1,19,119.1,19,119.1,18.9z" fill="#ffffff"/>
<path d="M141.4,15.2c-2.1-1-2.2-1.1-2.2-1.8c0-0.7,0.6-1.2,1.6-1.2c0.8,0,1.4,0.2,1.9,0.7v0c0.1,0.1,0.2,0.1,0.3,0.1  c0.2,0,0.4-0.2,0.4-0.4c0,0,0,0,0,0V11c0,0-0.9-0.4-1.1-0.5c-0.6-0.3-1.3-0.4-2-0.4c-2.4,0-3.9,1.3-3.9,3.4c0,1.5,0.7,2.4,2.7,3.3  c1.6,0.7,2.1,1.1,2.1,1.9c0,0.9-0.8,1.5-2,1.5c-0.8,0-1.4-0.2-1.9-0.7v0c-0.1-0.1-0.2-0.1-0.3-0.1c-0.2,0-0.4,0.2-0.4,0.4  c0,0,0,0,0,0.1l0,0l0.1,1.9c1.2,0.4,1.9,0.6,2.8,0.6c2.7,0,4.4-1.4,4.4-3.7C144,17.1,143.3,16.1,141.4,15.2z" fill="#ffffff"/>
<path d="M149.6,15.2c-2.1-1-2.2-1.1-2.2-1.8c0-0.7,0.6-1.2,1.6-1.2c0.8,0,1.4,0.2,1.9,0.7v0c0.1,0.1,0.2,0.1,0.3,0.1  c0.2,0,0.4-0.2,0.4-0.4c0,0,0,0,0,0V11c0,0-0.9-0.4-1.1-0.5c-0.6-0.3-1.3-0.4-2-0.4c-2.4,0-3.9,1.3-3.9,3.4c0,1.5,0.7,2.4,2.7,3.3  c1.6,0.7,2.1,1.1,2.1,1.9c0,0.9-0.8,1.5-2,1.5c-0.7,0-1.4-0.2-1.9-0.7l0,0c-0.1-0.1-0.2-0.1-0.3-0.1c-0.2,0-0.4,0.2-0.4,0.4  c0,0,0,0,0,0.1l0,0l0.1,1.9c1.2,0.4,1.9,0.6,2.8,0.6c2.7,0,4.4-1.4,4.4-3.7C152.2,17.1,151.5,16.1,149.6,15.2z" fill="#ffffff"/>
<g>
	<path d="M158,6.4c0,1.3-1,2.2-2.3,2.2c-1.3,0-2.3-1-2.3-2.2c0-1.2,1-2.2,2.3-2.2C157,4.2,158,5.1,158,6.4z M154,6.4   c0,1,0.7,1.8,1.7,1.8c1,0,1.7-0.8,1.7-1.8c0-1-0.7-1.8-1.7-1.8C154.8,4.6,154,5.4,154,6.4z M155.4,7.5h-0.5V5.3   c0.2,0,0.5-0.1,0.8-0.1c0.4,0,0.6,0.1,0.8,0.2c0.1,0.1,0.2,0.3,0.2,0.5c0,0.2-0.2,0.4-0.5,0.5v0c0.2,0.1,0.3,0.2,0.4,0.5   c0.1,0.3,0.1,0.5,0.2,0.6h-0.6c-0.1-0.1-0.1-0.3-0.2-0.5c0-0.2-0.2-0.4-0.5-0.4h-0.2V7.5z M155.4,6.3h0.2c0.3,0,0.5-0.1,0.5-0.3   c0-0.2-0.1-0.3-0.5-0.3c-0.1,0-0.2,0-0.3,0V6.3z" fill="#ffffff"/>
</g>
<path d="M111.5,26.7h1.2c0.6,0,1,0.1,1.2,0.2c0.2,0.2,0.4,0.4,0.4,0.7c0,0.2-0.1,0.4-0.2,0.6c-0.1,0.1-0.3,0.2-0.5,0.3v0  c0.3,0.1,0.5,0.2,0.6,0.3c0.1,0.1,0.2,0.4,0.2,0.6c0,0.3-0.1,0.6-0.4,0.8c-0.3,0.2-0.6,0.3-1.1,0.3h-1.5V26.7z M112.2,28.2h0.6  c0.3,0,0.5,0,0.6-0.1c0.1-0.1,0.2-0.2,0.2-0.4c0-0.2-0.1-0.3-0.2-0.4c-0.1-0.1-0.4-0.1-0.7-0.1h-0.6V28.2z M112.2,28.7V30h0.7  c0.3,0,0.5-0.1,0.6-0.2c0.1-0.1,0.2-0.3,0.2-0.5c0-0.2-0.1-0.3-0.2-0.4c-0.1-0.1-0.4-0.1-0.7-0.1H112.2z" fill="#ffffff"/>
<path d="M117.1,28.4l1-1.7h0.7l-1.3,2.3v1.5h-0.7V29l-1.3-2.4h0.7L117.1,28.4z" fill="#ffffff"/>
<path d="M123.3,28.9v1.5h-0.7v-3.8h1.1c0.5,0,0.9,0.1,1.2,0.3c0.2,0.2,0.4,0.5,0.4,0.8c0,0.5-0.3,0.8-0.8,1l1.1,1.7h-0.7l-1-1.5  H123.3z M123.3,28.4h0.5c0.3,0,0.5-0.1,0.7-0.2c0.1-0.1,0.2-0.3,0.2-0.5c0-0.2-0.1-0.4-0.2-0.5s-0.4-0.1-0.7-0.1h-0.4V28.4z" fill="#ffffff"/>
<path d="M130.6,28.6c0,0.6-0.2,1.1-0.5,1.5c-0.3,0.3-0.8,0.5-1.4,0.5c-0.6,0-1.1-0.2-1.4-0.5c-0.3-0.3-0.5-0.8-0.5-1.5  c0-0.6,0.2-1.1,0.5-1.5c0.3-0.3,0.8-0.5,1.4-0.5c0.6,0,1.1,0.2,1.4,0.5C130.4,27.4,130.6,27.9,130.6,28.6z M127.5,28.6  c0,0.5,0.1,0.8,0.3,1.1c0.2,0.2,0.5,0.4,0.9,0.4c0.4,0,0.7-0.1,0.9-0.4c0.2-0.2,0.3-0.6,0.3-1.1c0-0.5-0.1-0.8-0.3-1.1  c-0.2-0.2-0.5-0.4-0.9-0.4c-0.4,0-0.7,0.1-0.9,0.4C127.6,27.7,127.5,28.1,127.5,28.6z" fill="#ffffff"/>
<path d="M132.2,26.7h1.2c0.6,0,1,0.1,1.2,0.2c0.2,0.2,0.4,0.4,0.4,0.7c0,0.2-0.1,0.4-0.2,0.6c-0.1,0.1-0.3,0.2-0.5,0.3v0  c0.3,0.1,0.5,0.2,0.6,0.3c0.1,0.1,0.2,0.4,0.2,0.6c0,0.3-0.1,0.6-0.4,0.8c-0.3,0.2-0.6,0.3-1.1,0.3h-1.5V26.7z M132.9,28.2h0.6  c0.3,0,0.5,0,0.6-0.1c0.1-0.1,0.2-0.2,0.2-0.4c0-0.2-0.1-0.3-0.2-0.4c-0.1-0.1-0.4-0.1-0.7-0.1h-0.6V28.2z M132.9,28.7V30h0.7  c0.3,0,0.5-0.1,0.6-0.2c0.1-0.1,0.2-0.3,0.2-0.5c0-0.2-0.1-0.3-0.2-0.4c-0.1-0.1-0.4-0.1-0.7-0.1H132.9z" fill="#ffffff"/>
<path d="M140.2,28.6c0,0.6-0.2,1.1-0.5,1.5c-0.3,0.3-0.8,0.5-1.4,0.5c-0.6,0-1.1-0.2-1.4-0.5c-0.3-0.3-0.5-0.8-0.5-1.5  c0-0.6,0.2-1.1,0.5-1.5c0.3-0.3,0.8-0.5,1.4-0.5c0.6,0,1.1,0.2,1.4,0.5C140.1,27.4,140.2,27.9,140.2,28.6z M137.2,28.6  c0,0.5,0.1,0.8,0.3,1.1c0.2,0.2,0.5,0.4,0.9,0.4c0.4,0,0.7-0.1,0.9-0.4c0.2-0.2,0.3-0.6,0.3-1.1c0-0.5-0.1-0.8-0.3-1.1  c-0.2-0.2-0.5-0.4-0.9-0.4c-0.4,0-0.7,0.1-0.9,0.4C137.3,27.7,137.2,28.1,137.2,28.6z" fill="#ffffff"/>
<path d="M143.2,30.5h-0.7v-3.3h-1.2v-0.5h3v0.5h-1.2V30.5z" fill="#ffffff"/>
<path d="M148.1,30.5h-2.3v-3.8h2.3v0.5h-1.6v1h1.5v0.5h-1.5v1.2h1.6V30.5z" fill="#ffffff"/>
<path d="M149.7,30.5v-3.8h0.7v3.3h1.7v0.5H149.7z" fill="#ffffff"/>
</svg>